<?xml version="1.0" encoding="UTF-8"?>
<svg id="_레이어_2" data-name="레이어 2" xmlns="http://www.w3.org/2000/svg" viewBox="0 0 916.14 298">
  <defs>
    <style>
      .cls-1 {
        fill: #fff;
      }

      .cls-2 {
        fill: #ff1004;
      }
    </style>
  </defs>
  <g id="_레이어_2-2" data-name="레이어 2">
    <g>
      <path class="cls-1" d="M916.14,298H20.55c-12.67,0-20.55-8.43-20.55-22,0-.23,.01-.82,.03-1.42,0-.45,.02-.9,.02-1.09V51.5c0-7.22,3.91-13.66,11.01-18.13,3.5-2.2,7.56-3.37,11.75-3.37H101.62c4.08,0,7.91-1.8,10.53-4.93l12.39-14.87c5.4-6.48,13.34-10.2,21.79-10.2h120.32c6.65,0,12.88,2.94,17.1,8.08l.38,.5,3.18,4.6c1.8,2.61,2.75,5.66,2.75,8.82h-15c0-.1-.03-.2-.09-.29l-2.98-4.3c-1.36-1.53-3.29-2.41-5.35-2.41h-120.32c-3.98,0-7.72,1.75-10.26,4.81l-12.39,14.87c-5.47,6.56-13.51,10.33-22.05,10.33H22.8c-1.35,0-2.65,.37-3.75,1.06-2.65,1.67-4,3.5-4,5.44v222c0,.23-.01,.82-.03,1.42,0,.45-.02,.9-.02,1.09,0,6.99,3.08,6.99,5.55,6.99H916.14v15Z"/>
      <path class="cls-1" d="M413.29,257.51h-35.75l-65.18-91.49-14.11,17.35v74.14h-32.59V46h32.59l.49,88.41,70.78-88.41h36.97v4.48l-72.97,89.53,79.78,113.31v4.2Z"/>
      <path class="cls-1" d="M590.59,257.51h-35.02l-18.48-57.08h-66.16l-18,57.08h-34.78L490.14,46h26.75l73.7,211.51Zm-63.72-88.41l-22.38-68.83h-1.95l-21.89,68.83h46.21Z"/>
      <path class="cls-1" d="M682.77,178.05h-36.48v79.46h-32.59V46h69.08c45,0,67.86,26.3,67.86,66.03s-22.86,66.03-67.86,66.03Zm0-100.16h-36.48v68.27h36.48c24.56,0,35.27-15.39,35.27-34.13s-10.7-34.13-35.27-34.13Z"/>
      <path class="cls-1" d="M915.77,257.51h-35.02l-18.48-57.08h-66.16l-18,57.08h-34.78l71.99-211.51h26.75l73.7,211.51Zm-63.72-88.41l-22.38-68.83h-1.95l-21.89,68.83h46.21Z"/>
      <path class="cls-1" d="M201.31,209.33c-31.76,0-57.5-25.74-57.5-57.5s25.74-57.5,57.5-57.5c22.75,0,42.41,13.22,51.74,32.39v-27.46c-13.32-13.1-31.58-21.2-51.74-21.2-40.74,0-73.77,33.03-73.77,73.77s33.03,73.77,73.77,73.77c20.16,0,38.42-8.09,51.74-21.2v-27.46c-9.32,19.17-28.98,32.39-51.74,32.39Z"/>
      <circle class="cls-2" cx="68.55" cy="85.5" r="22.5"/>
      <path class="cls-1" d="M253.39,221.77c-14.54,10.84-32.55,17.28-52.08,17.28-48.17,0-87.22-39.05-87.22-87.22s39.05-87.22,87.22-87.22c19.37,0,37.26,6.32,51.74,17v-23.46c-15.33-8.49-32.97-13.32-51.74-13.32-59.09,0-107,47.91-107,107s47.91,107,107,107c18.91,0,36.67-4.91,52.08-13.52v-23.54Z"/>
    </g>
  </g>
</svg>