<?xml version="1.0" encoding="UTF-8"?>
<svg id="_레이어_2" data-name="레이어 2" xmlns="http://www.w3.org/2000/svg" viewBox="0 0 916.48 298">
  <defs>
    <style>
      .cls-1 {
        fill: #ff1004;
      }
    </style>
  </defs>
  <g id="_레이어_2-2" data-name="레이어 2">
    <g>
      <path d="M916.14,298H20.55c-12.67,0-20.55-8.43-20.55-22,0-.23,.01-.82,.03-1.42,0-.45,.02-.9,.02-1.09V51.5c0-7.22,3.91-13.66,11.01-18.13,3.5-2.2,7.56-3.37,11.75-3.37H101.62c4.08,0,7.91-1.8,10.53-4.93l12.39-14.87c5.4-6.48,13.34-10.2,21.79-10.2h120.32c6.65,0,12.88,2.94,17.1,8.08l.38,.5,3.18,4.6c1.8,2.61,2.75,5.66,2.75,8.82h-15c0-.1-.03-.2-.09-.29l-2.98-4.3c-1.36-1.53-3.29-2.41-5.35-2.41h-120.32c-3.98,0-7.72,1.75-10.26,4.81l-12.39,14.87c-5.47,6.56-13.51,10.33-22.05,10.33H22.8c-1.35,0-2.65,.37-3.75,1.06-2.65,1.67-4,3.5-4,5.44v222c0,.23-.01,.82-.03,1.42,0,.45-.02,.9-.02,1.09,0,6.99,3.08,6.99,5.55,6.99H916.14v15Z"/>
      <g>
        <g>
          <path d="M413.29,257.51h-35.75l-65.18-91.49-14.11,17.35v74.14h-32.59V46h32.59l.49,88.41,70.78-88.41h36.97v4.48l-72.97,89.53,79.78,113.31v4.2Z"/>
          <path d="M413.79,258.01h-36.51l-.15-.21-64.8-90.95-13.58,16.7v74.46h-33.59V45.5h33.59l.48,87.5,70.05-87.5h37.71v5.15l-.11,.14-72.73,89.24,79.65,113.13v4.86Zm-36-1h35v-3.54l-79.9-113.49,.24-.29,72.86-89.39v-3.8h-36.23l-71.51,89.33-.49-89.33h-31.59v210.51h31.59v-73.82l14.63-17.99,.38,.54,65.03,91.28Z"/>
        </g>
        <g>
          <path d="M590.59,257.51h-35.02l-18.48-57.08h-66.16l-18,57.08h-34.78L490.14,46h26.75l73.7,211.51Zm-63.72-88.41l-22.38-68.83h-1.95l-21.89,68.83h46.21Z"/>
          <path d="M591.3,258.01h-36.09l-.11-.35-18.37-56.73h-65.43l-18,57.08h-35.85l.22-.66L489.78,45.5h27.47l.12,.34,73.93,212.18Zm-35.37-1h33.96l-73.35-210.51h-26.04l-71.65,210.51h33.72l18-57.08h66.89l.11,.35,18.37,56.73Zm-28.38-87.41h-47.58l22.21-69.82h2.67l22.7,69.82Zm-46.22-1h44.84l-22.05-67.82h-1.22l-21.57,67.82Z"/>
        </g>
        <g>
          <path d="M682.77,178.05h-36.48v79.46h-32.59V46h69.08c45,0,67.86,26.3,67.86,66.03s-22.86,66.03-67.86,66.03Zm0-100.16h-36.48v68.27h36.48c24.56,0,35.27-15.39,35.27-34.13s-10.7-34.13-35.27-34.13Z"/>
          <path d="M646.78,258.01h-33.59V45.5h69.58c22.04,0,39.25,6.15,51.16,18.27,11.25,11.45,17.2,28.14,17.2,48.26s-5.95,36.81-17.2,48.26c-11.91,12.12-29.12,18.26-51.16,18.26h-35.98v79.46Zm-32.59-1h31.59v-79.46h36.98c42.81,0,67.36-23.88,67.36-65.53s-24.55-65.53-67.36-65.53h-68.58v210.51Zm68.58-110.35h-36.98V77.39h36.98c22.4,0,35.77,12.95,35.77,34.63s-13.37,34.63-35.77,34.63Zm-35.98-1h35.98c21.77,0,34.77-12.57,34.77-33.63s-13-33.63-34.77-33.63h-35.98v67.27Z"/>
        </g>
        <g>
          <path d="M915.77,257.51h-35.02l-18.48-57.08h-66.16l-18,57.08h-34.78l71.99-211.51h26.75l73.7,211.51Zm-63.72-88.41l-22.38-68.83h-1.95l-21.89,68.83h46.21Z"/>
          <path d="M916.48,258.01h-36.09l-.11-.35-18.37-56.73h-65.43l-18,57.08h-35.84l.22-.66,72.11-211.85h27.47l.12,.34,73.93,212.18Zm-35.37-1h33.96l-73.35-210.51h-26.04l-71.65,210.51h33.72l18-57.08h66.89l.11,.35,18.37,56.73Zm-28.38-87.41h-47.58l22.21-69.82h2.67l22.7,69.82Zm-46.22-1h44.84l-22.05-67.82h-1.22l-21.57,67.82Z"/>
        </g>
      </g>
      <path d="M201.31,209.33c-31.76,0-57.5-25.74-57.5-57.5s25.74-57.5,57.5-57.5c22.75,0,42.41,13.22,51.74,32.39v-27.46c-13.32-13.1-31.58-21.2-51.74-21.2-40.74,0-73.77,33.03-73.77,73.77s33.03,73.77,73.77,73.77c20.16,0,38.42-8.09,51.74-21.2v-27.46c-9.32,19.17-28.98,32.39-51.74,32.39Z"/>
      <circle class="cls-1" cx="68.55" cy="85.5" r="22.5"/>
      <path d="M253.39,221.77c-14.54,10.84-32.55,17.28-52.08,17.28-48.17,0-87.22-39.05-87.22-87.22s39.05-87.22,87.22-87.22c19.37,0,37.26,6.32,51.74,17v-23.46c-15.33-8.49-32.97-13.32-51.74-13.32-59.09,0-107,47.91-107,107s47.91,107,107,107c18.91,0,36.67-4.91,52.08-13.52v-23.54Z"/>
    </g>
  </g>
</svg>